<svg width="40.000000" height="40.000000" viewBox="0 0 40 40" fill="none" xmlns="http://www.w3.org/2000/svg" xmlns:xlink="http://www.w3.org/1999/xlink">
	<desc>
			Created with Pixso.
	</desc>
	<defs/>
	<rect id="Rectangle 3972" rx="20.000000" width="40.000000" height="40.000000" fill="#FFFFFF" fill-opacity="1.000000"/>
	<path id="f" d="M24.3447 21.6068L24.863 18.1942L21.6211 18.1942L21.6211 15.9806C21.6211 15.0468 22.073 14.1359 23.5251 14.1359L25 14.1359L25 11.2306C25 11.2306 23.6621 11 22.3835 11C19.7124 11 17.968 12.6348 17.968 15.5933L17.968 18.1942L15 18.1942L15 21.6068L17.968 21.6068L17.968 29.8571C18.564 29.9515 19.1736 30 19.7944 30C20.4155 30 21.0251 29.9515 21.6211 29.8571L21.6211 21.6068L24.3447 21.6068Z" fill="#3B599C" fill-opacity="1.000000" fill-rule="nonzero"/>
</svg>
