<svg width="40.000000" height="40.000000" viewBox="0 0 40 40" fill="none" xmlns="http://www.w3.org/2000/svg" xmlns:xlink="http://www.w3.org/1999/xlink">
	<desc>
			Created with Pixso.
	</desc>
	<defs>
		<linearGradient id="paint_linear_1_224_0" x1="20.500000" y1="11.000000" x2="20.500000" y2="30.000000" gradientUnits="userSpaceOnUse">
			<stop offset="0.062500" stop-color="#D82D7E"/>
			<stop offset="1.000000" stop-color="#FBA756"/>
		</linearGradient>
	</defs>
	<rect id="Rectangle 3974" rx="20.000000" width="40.000000" height="40.000000" fill="#FFFFFF" fill-opacity="1.000000"/>
	<path id="instagram" d="M11.6213 14.1123C11 15.3315 11 16.9277 11 20.12L11 20.88C11 24.0723 11 25.6685 11.6213 26.8877C12.1677 27.9603 13.0398 28.8323 14.1123 29.3788C15.3315 30 16.9277 30 20.1201 30L20.8799 30C24.0723 30 25.6685 30 26.8877 29.3788C27.9602 28.8323 28.8323 27.9603 29.3787 26.8877C30 25.6685 30 24.0723 30 20.88L30 20.12C30 16.9277 30 15.3315 29.3787 14.1123C28.8323 13.0397 27.9602 12.1677 26.8877 11.6212C25.6685 11 24.0723 11 20.8799 11L20.1201 11C16.9277 11 15.3315 11 14.1123 11.6212C13.0398 12.1677 12.1677 13.0397 11.6213 14.1123ZM20.8799 12.9L20.1201 12.9C18.4924 12.9 17.3862 12.9015 16.531 12.9713C15.698 13.0394 15.272 13.1627 14.9749 13.3142C14.2598 13.6785 13.6785 14.2598 13.3142 14.9749C13.1628 15.272 13.0393 15.698 12.9714 16.531C12.9014 17.3861 12.8999 18.4926 12.8999 20.12L12.8999 20.88C12.8999 22.5074 12.9014 23.6139 12.9714 24.469C13.0393 25.302 13.1628 25.728 13.3142 26.0251C13.6785 26.7402 14.2598 27.3215 14.9749 27.6858C15.272 27.8373 15.698 27.9606 16.531 28.0287C17.3862 28.0985 18.4924 28.1 20.1201 28.1L20.8799 28.1C22.5076 28.1 23.6138 28.0985 24.469 28.0287C25.302 27.9606 25.728 27.8373 26.0251 27.6858C26.7402 27.3215 27.3215 26.7402 27.6858 26.0251C27.8372 25.728 27.9607 25.302 28.0286 24.469C28.0986 23.6139 28.1001 22.5074 28.1001 20.88L28.1001 20.12C28.1001 18.4926 28.0986 17.3861 28.0286 16.531C27.9607 15.698 27.8372 15.272 27.6858 14.9749C27.3215 14.2598 26.7402 13.6785 26.0251 13.3142C25.728 13.1627 25.302 13.0394 24.469 12.9713C23.6138 12.9015 22.5076 12.9 20.8799 12.9ZM27.1499 15.275C27.1499 16.062 26.512 16.7 25.7251 16.7C24.938 16.7 24.3 16.062 24.3 15.275C24.3 14.488 24.938 13.85 25.7251 13.85C26.512 13.85 27.1499 14.488 27.1499 15.275ZM20.5 25.25C23.1233 25.25 25.25 23.1233 25.25 20.5C25.25 17.8766 23.1233 15.75 20.5 15.75C17.8767 15.75 15.75 17.8766 15.75 20.5C15.75 23.1233 17.8767 25.25 20.5 25.25ZM20.5 23.35C22.074 23.35 23.3501 22.074 23.3501 20.5C23.3501 18.926 22.074 17.65 20.5 17.65C18.926 17.65 17.6499 18.926 17.6499 20.5C17.6499 22.074 18.926 23.35 20.5 23.35Z" fill="url(#paint_linear_1_224_0)" fill-opacity="1.000000" fill-rule="evenodd"/>
</svg>
