<svg width="40.000000" height="40.000000" viewBox="0 0 40 40" fill="none" xmlns="http://www.w3.org/2000/svg" xmlns:xlink="http://www.w3.org/1999/xlink">
	<desc>
			Created with Pixso.
	</desc>
	<defs/>
	<rect id="Rectangle 3973" rx="20.000000" width="40.000000" height="40.000000" fill="#FFFFFF" fill-opacity="1.000000"/>
	<path id="twitter" d="M16.9639 27C14.7686 27 12.7224 26.4272 11 25.4391C12.4624 25.5239 15.043 25.3207 16.6482 23.9473C14.2334 23.8479 13.1445 22.1866 13.0024 21.4767C13.2075 21.5476 14.186 21.6328 14.7385 21.4341C11.9607 20.8093 11.5347 18.6227 11.6294 17.9553C12.1501 18.282 13.0339 18.3955 13.3811 18.3672C10.793 16.7059 11.7241 14.2069 12.1816 13.6674C14.0393 15.9757 16.823 17.2722 20.2668 17.3442C20.2019 17.0889 20.1677 16.8229 20.1677 16.5497C20.1677 14.5892 21.9341 13 24.1133 13C25.2517 13 26.2776 13.4338 26.9978 14.1278C27.7585 13.9679 28.9036 13.5935 29.4634 13.2698C29.1812 14.1785 28.3027 14.9365 27.7715 15.2175C28.2383 15.1542 29.5012 14.9365 30 14.6328C29.7532 15.1433 28.822 15.9922 28.0576 16.4674C28.2 22.0928 23.4019 27 16.9639 27Z" fill="#58A7DE" fill-opacity="1.000000" fill-rule="nonzero"/>
</svg>
